<?xml version="1.0" encoding="UTF-8"?>
<svg xmlns="http://www.w3.org/2000/svg" xmlns:xlink="http://www.w3.org/1999/xlink" width="375pt" height="374.999991pt" viewBox="0 0 375 374.999991" version="1.2">
<defs>
<clipPath id="clip1">
  <path d="M 305.722656 44.535156 L 347.6875 44.535156 L 347.6875 95.355469 L 305.722656 95.355469 Z M 305.722656 44.535156 "/>
</clipPath>
<clipPath id="clip2">
  <path d="M 29.132812 219.355469 L 138.347656 219.355469 L 138.347656 328.785156 L 29.132812 328.785156 Z M 29.132812 219.355469 "/>
</clipPath>
</defs>
<g id="surface1">
<path style=" stroke:none;fill-rule:evenodd;fill:rgb(100%,0%,0%);fill-opacity:1;" d="M 112.804688 221.152344 L 213.980469 114.6875 L 268.238281 148.042969 L 331.222656 64.660156 L 338.472656 61.363281 L 334.820312 70.773438 L 267.832031 177.070312 L 215.621094 150.222656 L 138.976562 250.59375 C 134.996094 237.355469 125.320312 226.585938 112.804688 221.152344 "/>
<g clip-path="url(#clip1)" clip-rule="nonzero">
<path style=" stroke:none;fill-rule:evenodd;fill:rgb(100%,0%,0%);fill-opacity:1;" d="M 347.6875 44.539062 L 339.421875 95.210938 L 326.617188 77.757812 L 305.753906 72.074219 L 347.6875 44.539062 "/>
</g>
<path style=" stroke:none;fill-rule:evenodd;fill:rgb(26.669312%,20.388794%,36.079407%);fill-opacity:1;" d="M 119.527344 251.261719 C 120 250.417969 120.855469 249.949219 121.820312 250.007812 C 122.78125 250.0625 123.578125 250.625 123.949219 251.519531 L 128.027344 261.273438 C 128.398438 262.167969 128.242188 263.132812 127.605469 263.859375 C 126.96875 264.582031 126.035156 264.863281 125.101562 264.609375 C 101.519531 258.15625 103.109375 289.570312 125.171875 283.359375 C 126.101562 283.101562 127.035156 283.375 127.675781 284.09375 C 128.320312 284.816406 128.484375 285.78125 128.117188 286.675781 L 124.113281 296.460938 C 123.746094 297.355469 122.957031 297.925781 121.992188 297.988281 C 121.027344 298.050781 120.171875 297.589844 119.691406 296.75 C 108.253906 276.675781 85.441406 298.207031 106.507812 310.058594 C 107.347656 310.53125 107.816406 311.386719 107.761719 312.351562 C 107.707031 313.316406 107.144531 314.113281 106.253906 314.488281 L 96.515625 318.570312 C 95.625 318.945312 94.664062 318.785156 93.9375 318.148438 C 93.210938 317.511719 92.933594 316.574219 93.1875 315.640625 C 99.238281 293.429688 67.910156 292.308594 74.472656 315.710938 C 74.734375 316.640625 74.460938 317.578125 73.738281 318.222656 C 73.019531 318.863281 72.058594 319.03125 71.164062 318.660156 C 67.910156 317.324219 64.652344 315.988281 61.398438 314.652344 C 60.503906 314.285156 59.9375 313.492188 59.875 312.527344 C 59.8125 311.558594 60.273438 310.703125 61.109375 310.222656 C 81.011719 298.835938 59.800781 275.648438 47.828125 297.011719 C 47.355469 297.855469 46.503906 298.324219 45.539062 298.265625 C 44.574219 298.210938 43.78125 297.648438 43.40625 296.753906 L 39.332031 286.996094 C 38.960938 286.105469 39.117188 285.140625 39.753906 284.414062 C 40.390625 283.6875 41.324219 283.410156 42.253906 283.664062 C 64.425781 289.730469 65.539062 258.339844 42.1875 264.910156 C 41.257812 265.171875 40.320312 264.898438 39.679688 264.175781 C 39.039062 263.457031 38.875 262.492188 39.242188 261.597656 L 43.246094 251.8125 C 43.609375 250.917969 44.402344 250.347656 45.363281 250.285156 C 46.328125 250.222656 47.1875 250.683594 47.664062 251.523438 C 59.058594 271.523438 82 250.113281 60.847656 238.214844 C 60.007812 237.742188 59.539062 236.886719 59.597656 235.921875 C 59.652344 234.957031 60.214844 234.160156 61.105469 233.785156 L 70.84375 229.703125 C 71.734375 229.328125 72.695312 229.488281 73.421875 230.125 C 74.144531 230.761719 74.425781 231.699219 74.171875 232.628906 C 68.132812 254.78125 99.496094 256.148438 92.886719 232.5625 C 92.625 231.632812 92.898438 230.695312 93.617188 230.050781 C 94.339844 229.410156 95.300781 229.242188 96.191406 229.609375 C 99.449219 230.949219 102.703125 232.285156 105.960938 233.621094 C 106.851562 233.988281 107.421875 234.78125 107.484375 235.746094 C 107.546875 236.710938 107.085938 237.570312 106.246094 238.050781 C 85.628906 249.847656 107.910156 271.992188 119.527344 251.261719 "/>
<g clip-path="url(#clip2)" clip-rule="nonzero">
<path style=" stroke:none;fill-rule:evenodd;fill:rgb(100%,0%,0%);fill-opacity:1;" d="M 54.527344 232.761719 C 54.390625 231.617188 53.660156 230.71875 52.574219 230.34375 C 51.488281 229.96875 50.359375 230.230469 49.546875 231.042969 L 40.671875 239.9375 C 39.859375 240.75 39.597656 241.882812 39.972656 242.96875 C 40.347656 244.058594 41.246094 244.789062 42.386719 244.929688 C 71.242188 248.488281 55.347656 282.335938 33.867188 265.53125 C 32.960938 264.824219 31.8125 264.703125 30.777344 265.207031 C 29.746094 265.710938 29.132812 266.695312 29.132812 267.847656 L 29.132812 280.425781 C 29.132812 281.574219 29.746094 282.558594 30.777344 283.0625 C 31.8125 283.570312 32.960938 283.449219 33.867188 282.738281 C 55.492188 265.824219 70.902344 299.824219 42.386719 303.34375 C 41.246094 303.484375 40.347656 304.214844 39.972656 305.304688 C 39.597656 306.390625 39.859375 307.519531 40.671875 308.335938 L 49.546875 317.230469 C 50.359375 318.042969 51.488281 318.304688 52.574219 317.929688 C 53.660156 317.554688 54.390625 316.652344 54.527344 315.511719 C 57.867188 288.332031 92.847656 301.257812 75.09375 324.046875 C 74.386719 324.953125 74.265625 326.105469 74.769531 327.140625 C 75.269531 328.175781 76.253906 328.789062 77.402344 328.789062 C 81.585938 328.789062 85.769531 328.789062 89.957031 328.789062 C 91.101562 328.789062 92.085938 328.175781 92.589844 327.140625 C 93.09375 326.105469 92.972656 324.953125 92.265625 324.046875 C 75.492188 302.523438 109.273438 286.59375 112.828125 315.511719 C 112.96875 316.652344 113.699219 317.554688 114.785156 317.929688 C 115.867188 318.304688 116.996094 318.042969 117.808594 317.230469 L 126.6875 308.335938 C 127.5 307.519531 127.761719 306.390625 127.386719 305.304688 C 127.011719 304.214844 126.113281 303.484375 124.972656 303.34375 C 97.847656 299.996094 110.75 264.953125 133.488281 282.738281 C 134.394531 283.449219 135.546875 283.570312 136.578125 283.0625 C 137.609375 282.558594 138.226562 281.574219 138.226562 280.425781 L 138.226562 267.847656 C 138.226562 266.695312 137.609375 265.710938 136.578125 265.207031 C 135.546875 264.703125 134.394531 264.824219 133.488281 265.53125 C 111.945312 282.386719 96.339844 248.460938 124.972656 244.929688 C 126.113281 244.789062 127.011719 244.058594 127.386719 242.96875 C 127.761719 241.882812 127.5 240.75 126.6875 239.9375 L 117.808594 231.042969 C 116.996094 230.230469 115.867188 229.96875 114.785156 230.34375 C 113.699219 230.714844 112.96875 231.617188 112.828125 232.761719 C 109.5 259.863281 74.371094 247.191406 92.265625 224.226562 C 92.972656 223.320312 93.09375 222.164062 92.589844 221.132812 C 92.085938 220.097656 91.101562 219.484375 89.957031 219.484375 C 85.769531 219.484375 81.585938 219.484375 77.402344 219.484375 C 76.253906 219.484375 75.269531 220.097656 74.769531 221.132812 C 74.265625 222.164062 74.386719 223.320312 75.09375 224.226562 C 92.46875 246.53125 57.976562 260.824219 54.527344 232.761719 "/>
</g>
<path style=" stroke:none;fill-rule:evenodd;fill:rgb(26.669312%,20.388794%,36.079407%);fill-opacity:1;" d="M 62.390625 269.511719 C 60.457031 267.796875 61.734375 263.191406 65.238281 259.230469 C 68.742188 255.269531 73.148438 253.445312 75.078125 255.160156 C 77.011719 256.875 75.734375 261.476562 72.230469 265.441406 C 68.726562 269.402344 64.320312 271.226562 62.390625 269.511719 "/>
<path style=" stroke:none;fill-rule:evenodd;fill:rgb(26.669312%,20.388794%,36.079407%);fill-opacity:1;" d="M 88.546875 251.902344 C 90.722656 252.609375 92.054688 254.523438 91.515625 256.179688 C 90.980469 257.835938 88.78125 258.609375 86.605469 257.898438 C 84.425781 257.191406 83.097656 255.277344 83.632812 253.621094 C 84.167969 251.964844 86.367188 251.195312 88.546875 251.902344 "/>
<path style=" stroke:none;fill-rule:evenodd;fill:rgb(26.669312%,20.388794%,36.079407%);fill-opacity:1;" d="M 96.472656 287.722656 C 91.75 286.671875 89.234375 279.886719 90.855469 272.566406 C 92.472656 265.242188 97.617188 260.160156 102.34375 261.210938 C 107.066406 262.257812 109.582031 269.042969 107.960938 276.367188 C 106.339844 283.6875 101.199219 288.773438 96.472656 287.722656 "/>
<path style=" stroke:none;fill-rule:evenodd;fill:rgb(26.669312%,20.388794%,36.079407%);fill-opacity:1;" d="M 86.417969 294.414062 C 85.835938 296.519531 81.871094 297.257812 77.566406 296.058594 C 73.265625 294.863281 70.246094 292.183594 70.832031 290.078125 C 71.414062 287.972656 75.378906 287.234375 79.679688 288.433594 C 83.984375 289.632812 87 292.308594 86.417969 294.414062 "/>
<path style=" stroke:none;fill-rule:evenodd;fill:rgb(26.669312%,20.388794%,36.079407%);fill-opacity:1;" d="M 65.410156 279.589844 C 64.984375 278.042969 65.59375 276.527344 66.765625 276.207031 C 67.9375 275.882812 69.234375 276.875 69.65625 278.425781 C 70.082031 279.972656 69.472656 281.488281 68.300781 281.8125 C 67.125 282.132812 65.832031 281.140625 65.410156 279.589844 "/>
</g>
</svg>
